[Header]
FileType HTR
DataType HTRS
FileVersion 1
NumSegments 64
NumFrames 4
DataFrameRate 24
EulerRotationOrder ZYX
CalibrationUnits mm
RotationUnits Degrees
GlobalAxisofGravity Y
BoneLengthAxis Y
ScaleFactor 1.0
[SegmentNames&Hierarchy]
Hips	GLOBAL
Spine	Hips
Spine1	Spine
Spine2	Spine1
Neck	Spine2
Head	Neck
LeftEye	Head
RightEye	Head
LeftShoulder	Spine2
LeftArm	LeftShoulder
LeftForeArm	LeftArm
LeftHand	LeftForeArm
LeftHandThumb1	LeftHand
LeftHandThumb2	LeftHandThumb1
LeftHandThumb3	LeftHandThumb2
LeftHandThumb4	LeftHandThumb3
LeftHandIndex1	LeftHand
LeftHandIndex2	LeftHandIndex1
LeftHandIndex3	LeftHandIndex2
LeftHandIndex4	LeftHandIndex3
LeftHandMiddle1	LeftHand
LeftHandMiddle2	LeftHandMiddle1
LeftHandMiddle3	LeftHandMiddle2
LeftHandMiddle4	LeftHandMiddle3
LeftHandRing1	LeftHand
LeftHandRing2	LeftHandRing1
LeftHandRing3	LeftHandRing2
LeftHandRing4	LeftHandRing3
LeftHandPinky1	LeftHand
LeftHandPinky2	LeftHandPinky1
LeftHandPinky3	LeftHandPinky2
LeftHandPinky4	LeftHandPinky3
RightShoulder	Spine2
RightArm	RightShoulder
RightForeArm	RightArm
RightHand	RightForeArm
RightHandPinky1	RightHand
RightHandPinky2	RightHandPinky1
RightHandPinky3	RightHandPinky2
RightHandPinky4	RightHandPinky3
RightHandRing1	RightHand
RightHandRing2	RightHandRing1
RightHandRing3	RightHandRing2
RightHandRing4	RightHandRing3
RightHandMiddle1	RightHand
RightHandMiddle2	RightHandMiddle1
RightHandMiddle3	RightHandMiddle2
RightHandMiddle4	RightHandMiddle3
RightHandIndex1	RightHand
RightHandIndex2	RightHandIndex1
RightHandIndex3	RightHandIndex2
RightHandIndex4	RightHandIndex3
RightHandThumb1	RightHand
RightHandThumb2	RightHandThumb1
RightHandThumb3	RightHandThumb2
RightHandThumb4	RightHandThumb3
LeftUpLeg	Hips
LeftLeg	LeftUpLeg
LeftFoot	LeftLeg
LeftToeBase	LeftFoot
RightUpLeg	Hips
RightLeg	RightUpLeg
RightFoot	RightLeg
RightToeBase	RightFoot
[BasePosition]
Hips	0	0	0	0	0	0	1
Spine	0	0	0	0	0	0	1
Spine1	0	0	0	0	0	0	1
Spine2	0	0	0	0	0	0	1
Neck	0	0	0	0	0	0	1
Head	0	0	0	0	0	0	1
LeftEye	0	0	0	0	0	0	1
RightEye	0	0	0	0	0	0	1
LeftShoulder	0	0	0	0	0	0	1
LeftArm	0	0	0	0	0	0	1
LeftForeArm	0	0	0	0	0	0	1
LeftHand	0	0	0	0	0	0	1
LeftHandThumb1	0	0	0	0	0	0	1
LeftHandThumb2	0	0	0	0	0	0	1
LeftHandThumb3	0	0	0	0	0	0	1
LeftHandThumb4	0	0	0	0	0	0	1
LeftHandIndex1	0	0	0	0	0	0	1
LeftHandIndex2	0	0	0	0	0	0	1
LeftHandIndex3	0	0	0	0	0	0	1
LeftHandIndex4	0	0	0	0	0	0	1
LeftHandMiddle1	0	0	0	0	0	0	1
LeftHandMiddle2	0	0	0	0	0	0	1
LeftHandMiddle3	0	0	0	0	0	0	1
LeftHandMiddle4	0	0	0	0	0	0	1
LeftHandRing1	0	0	0	0	0	0	1
LeftHandRing2	0	0	0	0	0	0	1
LeftHandRing3	0	0	0	0	0	0	1
LeftHandRing4	0	0	0	0	0	0	1
LeftHandPinky1	0	0	0	0	0	0	1
LeftHandPinky2	0	0	0	0	0	0	1
LeftHandPinky3	0	0	0	0	0	0	1
LeftHandPinky4	0	0	0	0	0	0	1
RightShoulder	0	0	0	0	0	0	1
RightArm	0	0	0	0	0	0	1
RightForeArm	0	0	0	0	0	0	1
RightHand	0	0	0	0	0	0	1
RightHandPinky1	0	0	0	0	0	0	1
RightHandPinky2	0	0	0	0	0	0	1
RightHandPinky3	0	0	0	0	0	0	1
RightHandPinky4	0	0	0	0	0	0	1
RightHandRing1	0	0	0	0	0	0	1
RightHandRing2	0	0	0	0	0	0	1
RightHandRing3	0	0	0	0	0	0	1
RightHandRing4	0	0	0	0	0	0	1
RightHandMiddle1	0	0	0	0	0	0	1
RightHandMiddle2	0	0	0	0	0	0	1
RightHandMiddle3	0	0	0	0	0	0	1
RightHandMiddle4	0	0	0	0	0	0	1
RightHandIndex1	0	0	0	0	0	0	1
RightHandIndex2	0	0	0	0	0	0	1
RightHandIndex3	0	0	0	0	0	0	1
RightHandIndex4	0	0	0	0	0	0	1
RightHandThumb1	0	0	0	0	0	0	1
RightHandThumb2	0	0	0	0	0	0	1
RightHandThumb3	0	0	0	0	0	0	1
RightHandThumb4	0	0	0	0	0	0	1
LeftUpLeg	0	0	0	0	0	0	1
LeftLeg	0	0	0	0	0	0	1
LeftFoot	0	0	0	0	0	0	1
LeftToeBase	0	0	0	0	0	0	1
RightUpLeg	0	0	0	0	0	0	1
RightLeg	0	0	0	0	0	0	1
RightFoot	0	0	0	0	0	0	1
RightToeBase	0	0	0	0	0	0	1
[Hips]
38	-1.900513291	1033.925659	19.01992035	-3.488247395	-5.219081879	-3.155732155	1.0
39	-2.132017851	1033.893677	18.9864521	-3.504166603	-5.169538498	-3.137042284	1.0
40	-2.37936306	1033.875	18.98113441	-3.512726307	-5.137919426	-3.121761799	1.0
41	-2.641405106	1033.864014	18.98842621	-3.516924381	-5.11730051	-3.108847141	1.0
[Spine]
38	0	101.8159943	1.315000057	3.667717218	1.797170997	2.948406935	1.0
39	0	101.8159943	1.315000057	3.687879562	1.820735931	2.958698273	1.0
40	0	101.8159943	1.315000057	3.705906153	1.83936584	2.969255686	1.0
41	0	101.8159943	1.315000057	3.722663403	1.855971813	2.979808569	1.0
[Spine1]
38	0	100.8349991	-10.00800037	1.243839025	0.4811918437	1.605404258	1.0
39	0	100.8349991	-10.00800037	1.250482202	0.4910972118	1.609098792	1.0
40	0	100.8349991	-10.00800037	1.256311655	0.4988415837	1.612599134	1.0
41	0	100.8349991	-10.00800037	1.261669755	0.5056743622	1.615918398	1.0
[Spine2]
38	0	91	-13.73399925	1.218619823	0.5039935708	1.607429266	1.0
39	0	91	-13.73399925	1.225260973	0.5139228702	1.611049175	1.0
40	0	91	-13.73399925	1.231095076	0.5216770768	1.614488125	1.0
41	0	91	-13.73399925	1.236461401	0.5285115242	1.617751837	1.0
[Neck]
38	0	166.7169952	-25.16200066	5.639685154	-0.2470188737	0.3964221478	1.0
39	0	166.7169952	-25.16200066	5.645083904	-0.2508537471	0.3881661296	1.0
40	0	166.7169952	-25.16200066	5.646080017	-0.2555399537	0.3834341466	1.0
41	0	166.7169952	-25.16200066	5.644842148	-0.2608714104	0.3809594214	1.0
[Head]
38	0	96.17900085	16.84999847	-8.41434288	0.95183599	-0.2943842709	1.0
39	0	96.17900085	16.84999847	-8.417556763	0.9396156073	-0.2990709543	1.0
40	0	96.17900085	16.84999847	-8.444576263	0.920807898	-0.291975975	1.0
41	0	96.17900085	16.84999847	-8.481164932	0.8984661698	-0.2784568369	1.0
[LeftEye]
38	30.6760006	64.09500122	92.83599854	0	0	0	1.0
39	30.6760006	64.09500122	92.83599854	0	0	0	1.0
40	30.6760006	64.09500122	92.83599854	0	0	0	1.0
41	30.6760006	64.09500122	92.83599854	0	0	0	1.0
[RightEye]
38	-30.6760006	64.09500122	92.83499908	0	0	0	1.0
39	-30.6760006	64.09500122	92.83499908	0	0	0	1.0
40	-30.6760006	64.09500122	92.83499908	0	0	0	1.0
41	-30.6760006	64.09500122	92.83499908	0	0	0	1.0
[LeftShoulder]
38	45.70400238	109.4599991	-26.28000069	4.964194775	-16.81672287	-13.5150795	1.0
39	45.70400238	109.4599991	-26.28000069	4.974526405	-16.86097145	-13.55346966	1.0
40	45.70400238	109.4599991	-26.28000069	4.981135368	-16.88871384	-13.57818699	1.0
41	45.70400238	109.4599991	-26.28000069	4.98567009	-16.90847397	-13.59476185	1.0
[LeftArm]
38	105.923996	-5.24600029	-22.32099915	19.94242096	-3.620516062	-70.90805054	1.0
39	105.923996	-5.24600029	-22.32099915	19.95864487	-3.625143051	-70.87599945	1.0
40	105.923996	-5.24600029	-22.32099915	19.96617699	-3.638163805	-70.8658905	1.0
41	105.923996	-5.24600029	-22.32099915	19.97037125	-3.655476332	-70.86726379	1.0
[LeftForeArm]
38	278.414978	-0.0009999999311	0	-8.484398109e-07	-1.438846111	-0.0002025426511	1.0
39	278.414978	-0.0009999999311	0	-3.978598215e-06	-1.440868378	-0.0002005232382	1.0
40	278.414978	-0.0009999999311	0	-5.673851774e-06	-1.443491697	-0.0001989571028	1.0
41	278.414978	-0.0009999999311	0	-6.992133876e-06	-1.446677685	-0.0001974572078	1.0
[LeftHand]
38	283.2879944	0	0	-32.84088135	-4.598788738	-4.149125576	1.0
39	283.2879944	0	0	-32.84756851	-4.611887455	-4.138200283	1.0
40	283.2879944	0	0	-32.85227203	-4.615229607	-4.117635727	1.0
41	283.2879944	0	0	-32.85390472	-4.612978458	-4.093000412	1.0
[LeftHandThumb1]
38	24.6609993	-15.75	26.8239994	-0.4889889657	2.201390743	4.818541527	1.0
39	24.6609993	-15.75	26.8239994	-0.4889889657	2.201390743	4.818541527	1.0
40	24.6609993	-15.75	26.8239994	-0.4889889657	2.201390743	4.818541527	1.0
41	24.6609993	-15.75	26.8239994	-0.4889889657	2.201390743	4.818541527	1.0
[LeftHandThumb2]
38	32.29800034	-18.64699936	18.64699936	19.88581276	19.96446037	23.26738167	1.0
39	32.29800034	-18.64699936	18.64699936	19.88581276	19.96446037	23.26738167	1.0
40	32.29800034	-18.64699936	18.64699936	19.88581276	19.96446037	23.26738167	1.0
41	32.29800034	-18.64699936	18.64699936	19.88581276	19.96446037	23.26738167	1.0
[LeftHandThumb3]
38	26.52600098	-15.31499958	15.31499958	-13.14535904	5.551738262	7.967928886	1.0
39	26.52600098	-15.31499958	15.31499958	-13.14535904	5.551738262	7.967928886	1.0
40	26.52600098	-15.31499958	15.31499958	-13.14535904	5.551738262	7.967928886	1.0
41	26.52600098	-15.31499958	15.31499958	-13.14535904	5.551738262	7.967928886	1.0
[LeftHandThumb4]
38	19.54599953	-11.28499985	11.28499985	0	0	0	1.0
39	19.54599953	-11.28499985	11.28499985	0	0	0	1.0
40	19.54599953	-11.28499985	11.28499985	0	0	0	1.0
41	19.54599953	-11.28499985	11.28499985	0	0	0	1.0
[LeftHandIndex1]
38	91.09299469	-5.170999527	22.60099792	0.1480516791	-0.9618676901	-7.594518185	1.0
39	91.09299469	-5.170999527	22.60099792	0.1480516791	-0.9618676901	-7.594518185	1.0
40	91.09299469	-5.170999527	22.60099792	0.1480516791	-0.9618676901	-7.594518185	1.0
41	91.09299469	-5.170999527	22.60099792	0.1480516791	-0.9618676901	-7.594518185	1.0
[LeftHandIndex2]
38	36.76399994	0	0	-0.2667043209	1.745171905	-17.37646866	1.0
39	36.76399994	0	0	-0.2667043209	1.745171905	-17.37646866	1.0
40	36.76399994	0	0	-0.2667043209	1.745171905	-17.37646866	1.0
41	36.76399994	0	0	-0.2667043209	1.745171905	-17.37646866	1.0
[LeftHandIndex3]
38	28.83100128	0	0	-0.05742863193	0.817338407	-8.038370132	1.0
39	28.83100128	0	0	-0.05742863193	0.817338407	-8.038370132	1.0
40	28.83100128	0	0	-0.05742863193	0.817338407	-8.038370132	1.0
41	28.83100128	0	0	-0.05742863193	0.817338407	-8.038370132	1.0
[LeftHandIndex4]
38	23.92700005	0	0	0	0	0	1.0
39	23.92700005	0	0	0	0	0	1.0
40	23.92700005	0	0	0	0	0	1.0
41	23.92700005	0	0	0	0	0	1.0
[LeftHandMiddle1]
38	95.33399963	0	0	-0.7942916155	2.538622379	-15.71737862	1.0
39	95.33399963	0	0	-0.7942916155	2.538622379	-15.71737862	1.0
40	95.33399963	0	0	-0.7942916155	2.538622379	-15.71737862	1.0
41	95.33399963	0	0	-0.7942916155	2.538622379	-15.71737862	1.0
[LeftHandMiddle2]
38	36.98199844	0	0	-0.267610997	1.748071074	-17.40625954	1.0
39	36.98199844	0	0	-0.267610997	1.748071074	-17.40625954	1.0
40	36.98199844	0	0	-0.267610997	1.748071074	-17.40625954	1.0
41	36.98199844	0	0	-0.267610997	1.748071074	-17.40625954	1.0
[LeftHandMiddle3]
38	29.50900078	0	0	-0.2992140949	1.84580946	-18.41413307	1.0
39	29.50900078	0	0	-0.2992140949	1.84580946	-18.41413307	1.0
40	29.50900078	0	0	-0.2992140949	1.84580946	-18.41413307	1.0
41	29.50900078	0	0	-0.2992140949	1.84580946	-18.41413307	1.0
[LeftHandMiddle4]
38	28.3390007	0	0	0	0	0	1.0
39	28.3390007	0	0	0	0	0	1.0
40	28.3390007	0	0	0	0	0	1.0
41	28.3390007	0	0	0	0	0	1.0
[LeftHandRing1]
38	91.04499817	-0.4390000105	-18.65100098	-1.184956431	3.436642885	-21.16632462	1.0
39	91.04499817	-0.4390000105	-18.65100098	-1.184956431	3.436642885	-21.16632462	1.0
40	91.04499817	-0.4390000105	-18.65100098	-1.184956431	3.436642885	-21.16632462	1.0
41	91.04499817	-0.4390000105	-18.65100098	-1.184956431	3.436642885	-21.16632462	1.0
[LeftHandRing2]
38	31.54000092	0	0	-0.3849357069	2.085560799	-20.91281319	1.0
39	31.54000092	0	0	-0.3849357069	2.085560799	-20.91281319	1.0
40	31.54000092	0	0	-0.3849357069	2.085560799	-20.91281319	1.0
41	31.54000092	0	0	-0.3849357069	2.085560799	-20.91281319	1.0
[LeftHandRing3]
38	29.37700081	0	0	-0.2818065584	1.792707562	-17.86576271	1.0
39	29.37700081	0	0	-0.2818065584	1.792707562	-17.86576271	1.0
40	29.37700081	0	0	-0.2818065584	1.792707562	-17.86576271	1.0
41	29.37700081	0	0	-0.2818065584	1.792707562	-17.86576271	1.0
[LeftHandRing4]
38	26.47500038	0	0	0	0	0	1.0
39	26.47500038	0	0	0	0	0	1.0
40	26.47500038	0	0	0	0	0	1.0
41	26.47500038	0	0	0	0	0	1.0
[LeftHandPinky1]
38	80.77799988	-4.887000084	-38.06099701	-1.708467126	5.355370045	-27.1653862	1.0
39	80.77799988	-4.887000084	-38.06099701	-1.708467126	5.355370045	-27.1653862	1.0
40	80.77799988	-4.887000084	-38.06099701	-1.708467126	5.355370045	-27.1653862	1.0
41	80.77799988	-4.887000084	-38.06099701	-1.708467126	5.355370045	-27.1653862	1.0
[LeftHandPinky2]
38	36	0	0	-0.2676221728	1.748113751	-17.40663528	1.0
39	36	0	0	-0.2676221728	1.748113751	-17.40663528	1.0
40	36	0	0	-0.2676221728	1.748113751	-17.40663528	1.0
41	36	0	0	-0.2676221728	1.748113751	-17.40663528	1.0
[LeftHandPinky3]
38	21.14200211	0	0	-0.2408525199	1.660349369	-16.50663185	1.0
39	21.14200211	0	0	-0.2408525199	1.660349369	-16.50663185	1.0
40	21.14200211	0	0	-0.2408525199	1.660349369	-16.50663185	1.0
41	21.14200211	0	0	-0.2408525199	1.660349369	-16.50663185	1.0
[LeftHandPinky4]
38	19.75699997	0	0	0	0	0	1.0
39	19.75699997	0	0	0	0	0	1.0
40	19.75699997	0	0	0	0	0	1.0
41	19.75699997	0	0	0	0	0	1.0
[RightShoulder]
38	-45.70000076	109.4620056	-26.28000069	5.30136013	14.95015812	15.98876762	1.0
39	-45.70000076	109.4620056	-26.28000069	5.313705921	15.02414322	16.02070427	1.0
40	-45.70000076	109.4620056	-26.28000069	5.321409225	15.07280159	16.03914452	1.0
41	-45.70000076	109.4620056	-26.28000069	5.327271461	15.11101341	16.05242538	1.0
[RightArm]
38	-105.9280014	-5.248000145	-22.32099915	30.12367821	1.84879899	62.42324829	1.0
39	-105.9280014	-5.248000145	-22.32099915	30.17275047	1.833188057	62.37872314	1.0
40	-105.9280014	-5.248000145	-22.32099915	30.21648407	1.83378458	62.34054565	1.0
41	-105.9280014	-5.248000145	-22.32099915	30.25987625	1.842359662	62.30396652	1.0
[RightForeArm]
38	-278.414978	0	0	9.428574117e-07	6.696536541	-7.66391895e-06	1.0
39	-278.414978	0	0	4.186656497e-06	6.681566715	-8.849728147e-06	1.0
40	-278.414978	0	0	3.468327577e-06	6.678039551	-1.310013886e-05	1.0
41	-278.414978	0	0	1.041265477e-06	6.679331779	-1.908695413e-05	1.0
[RightHand]
38	-283.2879944	0	0.0009999999311	-20.48298264	1.673631668	6.157772064	1.0
39	-283.2879944	0	0.0009999999311	-20.48028183	1.659393191	6.141244888	1.0
40	-283.2879944	0	0.0009999999311	-20.47833252	1.649783492	6.14054966	1.0
41	-283.2879944	0	0.0009999999311	-20.47407532	1.642465591	6.149980545	1.0
[RightHandPinky1]
38	-80.76699829	-4.885000229	-38.06000137	-1.507175922	-4.696118355	26.50587463	1.0
39	-80.76699829	-4.885000229	-38.06000137	-1.507175922	-4.696118355	26.50587463	1.0
40	-80.76699829	-4.885000229	-38.06000137	-1.507175922	-4.696118355	26.50587463	1.0
41	-80.76699829	-4.885000229	-38.06000137	-1.507175922	-4.696118355	26.50587463	1.0
[RightHandPinky2]
38	-36	0	0.0009999999311	-0.2127676606	-1.388874292	17.43785858	1.0
39	-36	0	0.0009999999311	-0.2127676606	-1.388874292	17.43785858	1.0
40	-36	0	0.0009999999311	-0.2127676606	-1.388874292	17.43785858	1.0
41	-36	0	0.0009999999311	-0.2127676606	-1.388874292	17.43785858	1.0
[RightHandPinky3]
38	-21.14200211	0	0	-0.1919144988	-1.32059598	16.53641129	1.0
39	-21.14200211	0	0	-0.1919144988	-1.32059598	16.53641129	1.0
40	-21.14200211	0	0	-0.1919144988	-1.32059598	16.53641129	1.0
41	-21.14200211	0	0	-0.1919144988	-1.32059598	16.53641129	1.0
[RightHandPinky4]
38	-19.75699997	0	0	0	0	0	1.0
39	-19.75699997	0	0	0	0	0	1.0
40	-19.75699997	0	0	0	0	0	1.0
41	-19.75699997	0	0	0	0	0	1.0
[RightHandRing1]
38	-91.03599548	-0.4390000105	-18.65100098	-1.045235753	-2.883111477	20.47788429	1.0
39	-91.03599548	-0.4390000105	-18.65100098	-1.045235753	-2.883111477	20.47788429	1.0
40	-91.03599548	-0.4390000105	-18.65100098	-1.045235753	-2.883111477	20.47788429	1.0
41	-91.03599548	-0.4390000105	-18.65100098	-1.045235753	-2.883111477	20.47788429	1.0
[RightHandRing2]
38	-31.54000092	0	0	-0.3066971898	-1.658752441	20.94926834	1.0
39	-31.54000092	0	0	-0.3066971898	-1.658752441	20.94926834	1.0
40	-31.54000092	0	0	-0.3066971898	-1.658752441	20.94926834	1.0
41	-31.54000092	0	0	-0.3066971898	-1.658752441	20.94926834	1.0
[RightHandRing3]
38	-29.37700081	0	0	-0.2245407403	-1.425854325	17.89771652	1.0
39	-29.37700081	0	0	-0.2245407403	-1.425854325	17.89771652	1.0
40	-29.37700081	0	0	-0.2245407403	-1.425854325	17.89771652	1.0
41	-29.37700081	0	0	-0.2245407403	-1.425854325	17.89771652	1.0
[RightHandRing4]
38	-26.47500038	0	0	0	0	0	1.0
39	-26.47500038	0	0	0	0	0	1.0
40	-26.47500038	0	0	0	0	0	1.0
41	-26.47500038	0	0	0	0	0	1.0
[RightHandMiddle1]
38	-95.32500458	0	0	-0.7017197609	-2.087752104	15.0152874	1.0
39	-95.32500458	0	0	-0.7017197609	-2.087752104	15.0152874	1.0
40	-95.32500458	0	0	-0.7017197609	-2.087752104	15.0152874	1.0
41	-95.32500458	0	0	-0.7017197609	-2.087752104	15.0152874	1.0
[RightHandMiddle2]
38	-36.98199844	0	0	-0.213228479	-1.390354872	17.43750381	1.0
39	-36.98199844	0	0	-0.213228479	-1.390354872	17.43750381	1.0
40	-36.98199844	0	0	-0.213228479	-1.390354872	17.43750381	1.0
41	-36.98199844	0	0	-0.213228479	-1.390354872	17.43750381	1.0
[RightHandMiddle3]
38	-29.50900078	0	0	-0.2384106964	-1.470119596	18.44692802	1.0
39	-29.50900078	0	0	-0.2384106964	-1.470119596	18.44692802	1.0
40	-29.50900078	0	0	-0.2384106964	-1.470119596	18.44692802	1.0
41	-29.50900078	0	0	-0.2384106964	-1.470119596	18.44692802	1.0
[RightHandMiddle4]
38	-28.3390007	0	0.0009999999311	0	0	0	1.0
39	-28.3390007	0	0.0009999999311	0	0	0	1.0
40	-28.3390007	0	0.0009999999311	0	0	0	1.0
41	-28.3390007	0	0.0009999999311	0	0	0	1.0
[RightHandIndex1]
38	-91.08300018	-5.167999744	22.60099792	0.1884763837	1.25192976	6.825599194	1.0
39	-91.08300018	-5.167999744	22.60099792	0.1884763837	1.25192976	6.825599194	1.0
40	-91.08300018	-5.167999744	22.60099792	0.1884763837	1.25192976	6.825599194	1.0
41	-91.08300018	-5.167999744	22.60099792	0.1884763837	1.25192976	6.825599194	1.0
[RightHandIndex2]
38	-36.76399994	0	0	-0.2125098109	-1.388050556	17.40767097	1.0
39	-36.76399994	0	0	-0.2125098109	-1.388050556	17.40767097	1.0
40	-36.76399994	0	0	-0.2125098109	-1.388050556	17.40767097	1.0
41	-36.76399994	0	0	-0.2125098109	-1.388050556	17.40767097	1.0
[RightHandIndex3]
38	-28.83100128	0	0	-0.04576345533	-0.650116384	8.053516388	1.0
39	-28.83100128	0	0	-0.04576345533	-0.650116384	8.053516388	1.0
40	-28.83100128	0	0	-0.04576345533	-0.650116384	8.053516388	1.0
41	-28.83100128	0	0	-0.04576345533	-0.650116384	8.053516388	1.0
[RightHandIndex4]
38	-23.92700005	0	0	0	0	0	1.0
39	-23.92700005	0	0	0	0	0	1.0
40	-23.92700005	0	0	0	0	0	1.0
41	-23.92700005	0	0	0	0	0	1.0
[RightHandThumb1]
38	-24.64799881	-15.72700024	26.82600021	-1.658462524	-0.2891407609	-4.221328735	1.0
39	-24.64799881	-15.72700024	26.82600021	-1.658462524	-0.2891407609	-4.221328735	1.0
40	-24.64799881	-15.72700024	26.82600021	-1.658462524	-0.2891407609	-4.221328735	1.0
41	-24.64799881	-15.72700024	26.82600021	-1.658462524	-0.2891407609	-4.221328735	1.0
[RightHandThumb2]
38	-32.29800034	-18.64699936	18.64699936	22.25259209	-23.88967514	-24.282444	1.0
39	-32.29800034	-18.64699936	18.64699936	22.25259209	-23.88967514	-24.282444	1.0
40	-32.29800034	-18.64699936	18.64699936	22.25259209	-23.88967514	-24.282444	1.0
41	-32.29800034	-18.64699936	18.64699936	22.25259209	-23.88967514	-24.282444	1.0
[RightHandThumb3]
38	-26.52600098	-15.31399918	15.31399918	-14.47830296	-6.743862152	-11.36570263	1.0
39	-26.52600098	-15.31399918	15.31399918	-14.47830296	-6.743862152	-11.36570263	1.0
40	-26.52600098	-15.31399918	15.31399918	-14.47830296	-6.743862152	-11.36570263	1.0
41	-26.52600098	-15.31399918	15.31399918	-14.47830296	-6.743862152	-11.36570263	1.0
[RightHandThumb4]
38	-19.54599953	-11.28499985	11.28499985	0	0	0	1.0
39	-19.54599953	-11.28499985	11.28499985	0	0	0	1.0
40	-19.54599953	-11.28499985	11.28499985	0	0	0	1.0
41	-19.54599953	-11.28499985	11.28499985	0	0	0	1.0
[LeftUpLeg]
38	82.07800293	-67.51699829	-15.99599934	-7.940099716	16.37293625	7.706600666	1.0
39	82.07800293	-67.51699829	-15.99599934	-7.929455757	16.36604309	7.695044994	1.0
40	82.07800293	-67.51699829	-15.99599934	-7.918787479	16.3649044	7.688864708	1.0
41	82.07800293	-67.51699829	-15.99599934	-7.908191681	16.3673172	7.68644762	1.0
[LeftLeg]
38	0	-443.7049866	2.845999956	12.1058979	0.7365335226	4.415872097	1.0
39	0	-443.7049866	2.845999956	12.08474541	0.6949749589	4.412687778	1.0
40	0	-443.7049866	2.845999956	12.06091309	0.667519331	4.411641121	1.0
41	0	-443.7049866	2.845999956	12.03539562	0.6485686302	4.412169456	1.0
[LeftFoot]
38	0	-444.2789917	-29.8219986	1.137050152	0.6785998344	-7.218167782	1.0
39	0	-444.2789917	-29.8219986	1.156408072	0.679507792	-7.224782467	1.0
40	0	-444.2789917	-29.8219986	1.177987576	0.6805599928	-7.230620384	1.0
41	0	-444.2789917	-29.8219986	1.201239586	0.6817348003	-7.23638916	1.0
[LeftToeBase]
38	0	-87.28699493	107.1060028	-4.949639797	2.752679848e-06	-3.687335663e-07	1.0
39	0	-87.28699493	107.1060028	-4.949972153	4.101651029e-06	2.193357886e-07	1.0
40	0	-87.28699493	107.1060028	-4.947900772	3.55688303e-06	1.390757092e-07	1.0
41	0	-87.28699493	107.1060028	-4.9444561	2.144981863e-06	-2.776559995e-07	1.0
[RightUpLeg]
38	-82.07800293	-67.51699829	-15.99599934	0.2546582222	-10.50404263	3.306848764	1.0
39	-82.07800293	-67.51699829	-15.99599934	0.2364320159	-10.50618649	3.305042028	1.0
40	-82.07800293	-67.51699829	-15.99599934	0.2220773548	-10.51445198	3.304111719	1.0
41	-82.07800293	-67.51699829	-15.99599934	0.2099654078	-10.52524376	3.304792643	1.0
[RightLeg]
38	0	-443.7049866	2.861999989	8.279085159	-9.221094131	-4.664508343	1.0
39	0	-443.7049866	2.861999989	8.348605156	-9.216162682	-4.681768417	1.0
40	0	-443.7049866	2.861999989	8.397092819	-9.214078903	-4.687435627	1.0
41	0	-443.7049866	2.861999989	8.432779312	-9.213590622	-4.686703682	1.0
[RightFoot]
38	0	-444.2770081	-29.83799934	-4.276218414	-1.450395584	3.333735228	1.0
39	0	-444.2770081	-29.83799934	-4.320064068	-1.499101281	3.333421946	1.0
40	0	-444.2770081	-29.83799934	-4.353515148	-1.536458969	3.324944973	1.0
41	0	-444.2770081	-29.83799934	-4.380513668	-1.567404866	3.311482906	1.0
[RightToeBase]
38	0	-87.28699493	107.1060028	-7.25227499	-1.813478661e-06	-2.457638629e-06	1.0
39	0	-87.28699493	107.1060028	-7.255436897	-4.536928373e-06	-2.634612429e-06	1.0
40	0	-87.28699493	107.1060028	-7.253335953	-7.906768587e-06	-2.251219257e-06	1.0
41	0	-87.28699493	107.1060028	-7.248221397	-1.202204658e-05	-1.555879521e-06	1.0
[EndOfFile]
